<?xml version="1.0"?><svg width="487.932" height="490.305" xmlns="http://www.w3.org/2000/svg">
 <g>
  <title>Layer 1</title>
  <g id="svg_1">
   <path transform="rotate(-30.376 243.652 246.13)" id="svg_2" d="m312.791321,227.603561c6.821991,25.457001 0.109009,50.50502 -18.524994,69.141006c-18.636993,18.635986 -43.684021,25.346985 -69.141022,18.524994c-25.457001,-6.820007 -43.792999,-25.157013 -50.613998,-50.614014c-6.820999,-25.456985 -0.108994,-50.503998 18.526001,-69.139984c18.636002,-18.636002 43.68399,-25.347 69.141006,-18.526001c25.457001,6.820999 43.792999,25.156998 50.613007,50.613998l0,0" stroke-miterlimit="10" stroke-linejoin="round" stroke-width="0.5892" stroke="#000000" fill="none"/>
   <path transform="rotate(-30.376 243.652 246.129)" id="svg_3" d="m219.354065,232.101196l-193.895994,-111.945992l193.895994,111.945992l0,0zm38.326019,-10.269989l111.945007,-193.896002l-111.945007,193.896002l0,0zm10.269989,38.326996l193.895996,111.945007l-193.895996,-111.945007l0,0zm-38.327011,10.269989l-111.944992,193.89502l111.944992,-193.89502l0,0z" fill="#FFFCFC" clip-rule="evenodd" fill-rule="evenodd"/>
   <path transform="rotate(-30.376 243.652 246.129)" id="svg_4" d="m219.354065,232.101196l-193.895994,-111.945992l193.895994,111.945992l0,0zm38.326019,-10.269989l111.945007,-193.896002l-111.945007,193.896002l0,0zm10.269989,38.326996l193.895996,111.945007l-193.895996,-111.945007l0,0zm-38.327011,10.269989l-111.944992,193.89502l111.944992,-193.89502l0,0z" stroke-dashoffset="19" stroke-dasharray="1.9826,23.7911" stroke-miterlimit="10" stroke-linejoin="round" stroke-width="1.9826" stroke="#000000" fill="none"/>
   <path transform="rotate(-30.376 243.651 246.13)" id="svg_5" d="m380.207245,209.539841c20.199005,75.379013 -24.585999,152.94899 -99.964996,173.146988c-75.380005,20.197021 -152.950005,-24.587982 -173.147995,-99.96698c-20.197998,-75.379013 24.587006,-152.94902 99.96701,-173.146996c75.378983,-20.197006 152.948959,24.58799 173.145981,99.966988l0,0z" stroke-dasharray="7.0504,7.0504" stroke-miterlimit="10" stroke-linejoin="round" stroke-width="3.5252" stroke="#000000" fill="none"/>
   <path transform="rotate(-30.376 243.652 246.129)" id="svg_14" d="m366.197937,213.292953c18.125,67.645004 -22.063995,137.255997 -89.710999,155.380997c-67.643997,18.126007 -137.255005,-22.063995 -155.380005,-89.709015c-18.125,-67.645996 22.063995,-137.255981 89.709,-155.381981c67.645004,-18.123993 137.25499,22.064995 155.382004,89.709999l0,0z" stroke-miterlimit="10" stroke-linejoin="round" stroke-width="3.1636" stroke="#000000" fill="none"/>
   <polygon transform="rotate(-30.376 243.652 246.13)" id="svg_15" points="356.03 216.018 260.703 255.975 273.764 358.507 233.807 263.181 131.274 276.241 226.6 236.285 213.54 133.752 253.496 229.078 356.03 216.018" fill="#6E6E6E" clip-rule="evenodd" fill-rule="evenodd"/>
   <polygon transform="rotate(-30.376 243.653 246.13)" id="svg_16" points="399.579 336.153 250.992 273.518 153.629 402.056 216.264 253.469 87.7266 156.105 236.314 218.741 333.677 90.204 271.042 238.791 399.579 336.153" clip-rule="evenodd" fill-rule="evenodd"/>
   <polygon transform="rotate(-30.376 243.653 246.13)" id="svg_17" points="399.579 336.153 250.992 273.518 153.629 402.056 216.264 253.469 87.7266 156.105 236.314 218.741 333.677 90.204 271.042 238.791 399.579 336.153" stroke-miterlimit="10" stroke-linejoin="round" stroke-width="2.0905" stroke="#000000" fill="none"/>
   <polygon transform="rotate(-30.376 324.658 240.802)" id="svg_19" points="264.645 207.976 279.971 204.333 384.67 277.272 264.645 207.976" fill="#FFFFFF" clip-rule="evenodd" fill-rule="evenodd"/>
   <polygon transform="rotate(-30.376 249.268 325.602)" id="svg_20" points="282.249 265.589 285.582 281.358 212.953 385.615 282.249 265.589" fill="#FFFFFF" clip-rule="evenodd" fill-rule="evenodd"/>
   <polygon transform="rotate(-30.376 162.56 251.312)" id="svg_21" points="222.573 284.309 206.762 287.613 102.547 215.012 222.573 284.309" fill="#FFFFFF" clip-rule="evenodd" fill-rule="evenodd"/>
   <polygon transform="rotate(-30.376 238.712 164.896)" id="svg_22" points="205.435 224.908 202.692 208.294 274.732 104.884 205.435 224.908" fill="#FFFFFF" clip-rule="evenodd" fill-rule="evenodd"/>
   <path transform="rotate(-30.376 243.652 246.129)" id="svg_23" d="m263.977051,240.683197c3.006012,11.220001 -3.660004,22.765015 -14.878998,25.770996c-11.220001,3.006012 -22.764999,-3.660004 -25.770996,-14.878998c-3.005997,-11.220001 3.660004,-22.765991 14.878998,-25.770996c11.220001,-3.005997 22.764984,3.660004 25.770996,14.878998l0,0z" fill="#FFFCFC" clip-rule="evenodd" fill-rule="evenodd"/>
   <path transform="rotate(-30.376 243.652 246.129)" id="svg_24" d="m263.977051,240.683197c3.006012,11.220001 -3.660004,22.765015 -14.878998,25.770996c-11.220001,3.006012 -22.764999,-3.660004 -25.770996,-14.878998c-3.005997,-11.220001 3.660004,-22.765991 14.878998,-25.770996c11.220001,-3.005997 22.764984,3.660004 25.770996,14.878998l0,0z" stroke-miterlimit="10" stroke-linejoin="round" stroke-width="2.9459" stroke="#000000" fill="none"/>
   <path transform="rotate(-30.376 243.048 -20.1318)" id="svg_25" d="m235.792297,-35.958328l7.660004,4.422001l5.328003,21.390999l4.746002,-8.219999c0.578003,-1.001001 0.914001,-1.976 1.005981,-2.924c0.09201,-0.948002 -0.071991,-1.804001 -0.491974,-2.569c-0.221008,-0.418001 -0.479004,-0.774 -0.777008,-1.066999c-0.296997,-0.293001 -0.746002,-0.644001 -1.350006,-1.052002l0.292999,-0.504999l9.449005,5.456001l-0.292999,0.504999l-0.19101,-0.110001c-1.372986,-0.793999 -2.674011,-0.960999 -3.895996,-0.501999c-1.225006,0.458 -2.31601,1.521 -3.277008,3.186998l-7.876984,13.641001l-0.449005,-0.26l-6.700989,-26.424999l-6.54303,11.333c-0.634979,1.101999 -1.011993,2.059 -1.128998,2.871s0.012024,1.575998 0.389008,2.290998c0.313995,0.570002 0.792999,1.096001 1.438019,1.577002c0.345978,0.283998 0.86499,0.644999 1.560974,1.082998l-0.292999,0.505001l-9.953003,-5.747l0.291016,-0.505001c1.050995,0.534 1.985992,0.833 2.804993,0.899c0.81601,0.065001 1.553009,-0.114 2.203003,-0.539c0.652008,-0.424999 1.235992,-1.083 1.75,-1.975l6.229004,-10.787001c0.38501,-0.664999 0.562988,-1.313999 0.53299,-1.948999c-0.026978,-0.635 -0.25,-1.240999 -0.669983,-1.816999s-1.031006,-1.096001 -1.832001,-1.557999l-0.246002,-0.142002l0.287994,-0.507999l0,0z"/>
   <path transform="rotate(-30.376 245.581 513.747)" id="svg_26" d="m259.149689,508.922729l0.477997,0.274994l-3.775986,6.541046l-0.478012,-0.276001c0.336014,-1.905029 0.39502,-3.511047 0.17601,-4.813049c-0.171005,-0.923981 -0.518997,-1.850983 -1.044998,-2.778992s-1.205002,-1.812988 -2.037994,-2.651001s-1.754013,-1.549988 -2.765015,-2.132996c-0.75499,-0.437012 -1.48999,-0.721008 -2.201996,-0.852997c-0.712006,-0.132996 -1.391998,-0.112 -2.037994,0.061981c-0.459,0.123016 -0.881012,0.31601 -1.264008,0.581024c-0.382996,0.263977 -0.671997,0.563995 -0.865997,0.901001c-0.367996,0.636993 -0.440002,1.329987 -0.216995,2.077972c0.095993,0.358002 0.296005,0.765015 0.597992,1.219025s0.729996,0.973999 1.284012,1.560974s1.346985,1.372009 2.380005,2.357025c0.269989,0.289001 0.457993,0.477997 0.565979,0.562988l0.575012,0.551025l0.906998,0.888c1.533997,1.505005 2.612991,2.674011 3.237,3.507019c0.623001,0.832947 1.057999,1.709961 1.304001,2.628967c0.208008,0.690002 0.272003,1.39502 0.19101,2.112c-0.081009,0.718994 -0.313004,1.408997 -0.697006,2.073975c-0.378006,0.655029 -0.899002,1.231018 -1.563004,1.729004s-1.399002,0.846008 -2.207001,1.046997c-1.072998,0.304016 -2.203995,0.343018 -3.390991,0.118042c-1.188004,-0.225037 -2.414001,-0.700989 -3.679016,-1.432983c-0.882996,-0.51001 -1.662994,-1.078003 -2.337997,-1.704041c-0.675995,-0.627014 -1.436996,-1.500977 -2.283005,-2.619995c-0.559998,-0.711975 -1.000992,-1.22998 -1.322998,-1.555969c-0.321991,-0.32605 -0.650986,-0.585999 -0.987991,-0.780029c-0.646011,-0.372986 -1.292999,-0.52002 -1.940994,-0.437988c-0.64801,0.080994 -1.226013,0.393982 -1.734009,0.937988l-0.477997,-0.276001l5.093002,-8.820007l0.477997,0.274994c-0.712997,1.677002 -0.900009,3.462006 -0.561996,5.356049c0.214996,1.119995 0.640991,2.290955 1.275986,3.513c0.63501,1.222961 1.401016,2.329956 2.298019,3.319946c0.895996,0.991028 1.840988,1.77301 2.832993,2.346008c0.882996,0.51001 1.774994,0.830994 2.67601,0.963013s1.705994,0.057007 2.414978,-0.226013c0.709,-0.282959 1.253021,-0.752014 1.632019,-1.406982c0.398987,-0.690979 0.480988,-1.476013 0.246994,-2.35199c-0.112991,-0.393005 -0.311996,-0.811035 -0.595993,-1.254028c-0.285019,-0.442993 -0.685013,-0.959961 -1.200012,-1.549011s-1.246994,-1.355957 -2.191986,-2.303955l-1.153015,-1.157043c-1.798996,-1.802979 -3.015991,-3.100983 -3.651001,-3.891998c-0.724991,-0.867981 -1.251984,-1.621002 -1.580994,-2.260986c-0.328995,-0.639008 -0.535004,-1.328003 -0.618011,-2.067017c-0.143997,-1.054993 0.037018,-2.018982 0.541016,-2.892975c0.610001,-1.056 1.471985,-1.822998 2.585999,-2.303009s2.373001,-0.630005 3.774002,-0.450989c1.401993,0.177979 2.791,0.663971 4.164993,1.457977c2.075012,1.197998 3.895004,3.019012 5.458008,5.463013c0.556976,0.842987 0.975983,1.346985 1.257996,1.51001c0.712006,0.410004 1.523987,0.181 2.437988,-0.687012l0,0l0,0z"/>
   <path transform="rotate(-30.376 -21.4036 241.346)" id="svg_27" d="m-36.934082,225.318924l9.927002,5.731003l-0.264,0.520996c-0.815001,-0.459 -1.473,-0.691986 -1.971001,-0.700989s-0.876999,0.209991 -1.133999,0.655991c-0.252001,0.436996 -0.436001,0.944 -0.550001,1.521011l-2.413,13.480988l9.480999,-7.434998c0.217001,-1.112 0.332001,-1.957001 0.343002,-2.53299s-0.067001,-1.149017 -0.236,-1.720001c-0.128002,-0.535004 -0.328001,-0.972015 -0.600002,-1.311005c-0.270998,-0.339005 -0.657999,-0.653015 -1.157999,-0.942001l0.292,-0.505005l10.35,5.976013l-0.292,0.50499l-0.505001,-0.291992c-0.818998,-0.473007 -1.536999,-0.702011 -2.151999,-0.687012c-0.616001,0.014999 -1.076,0.286011 -1.380001,0.813995c-0.205,0.355011 -0.336,0.729004 -0.392,1.121002l-2.362,13.583008l9.955999,-7.942001c0.521002,-0.440002 0.910002,-0.883011 1.168001,-1.328995c0.393999,-0.683014 0.421999,-1.346008 0.084,-1.990997c-0.337999,-0.644012 -1.055,-1.300018 -2.149,-1.969009l0.264999,-0.520996l7.660002,4.421997l-0.292,0.50499c-0.531002,-0.257996 -0.989002,-0.415985 -1.374001,-0.474991c-0.385,-0.059006 -0.846001,-0.054001 -1.382,0.012009c-1.111,0.159988 -2.322001,0.752991 -3.632,1.780991l-14.792,11.778l-0.505001,-0.291992l2.991001,-17.226013l-13.889,10.938004l-0.533001,-0.307999l3.202999,-18.287003c0.311001,-1.653 0.342003,-2.957993 0.094002,-3.914993c-0.249001,-0.957001 -0.806,-1.684998 -1.670002,-2.184006l-0.478001,-0.276001l0.291,-0.503998l0,0z"/>
   <path transform="rotate(-30.376 507.544 243.349)" id="svg_28" d="m502.89267,227.806778l20.289032,11.714996l-4.264038,7.386993l-0.409973,-0.235992c0.372986,-1.507996 0.597961,-2.667999 0.671997,-3.480011s0.040955,-1.643005 -0.10199,-2.488983c-0.180054,-1.014008 -0.521057,-1.860992 -1.027039,-2.541016c-0.85199,-1.110992 -2.078003,-2.128998 -3.679993,-3.053986l-3.756012,-2.167999l-5.233978,9.065979l1.009979,0.584015c1.502014,0.867004 3.068024,0.908997 4.697021,0.126007c0.837982,-0.401001 1.632965,-0.998993 2.383026,-1.792023c0.333984,-0.328979 0.768005,-0.848999 1.300964,-1.561981l0.479004,0.276001l-7.221008,12.507996l-0.479004,-0.276001c0.278992,-0.735992 0.515991,-1.446014 0.710999,-2.128998c0.192993,-0.68399 0.304993,-1.265991 0.334015,-1.746002c0.028992,-0.480988 0.005981,-0.992004 -0.070007,-1.533997c-0.235992,-1.483002 -1.109009,-2.661011 -2.621002,-3.53299l-0.790985,-0.457001l-4.928009,8.533997l3.140991,1.812988c0.928009,0.536011 1.800995,0.952026 2.619019,1.249023c0.817993,0.29599 1.603973,0.47699 2.35498,0.539978c0.752014,0.064026 1.515991,0.022003 2.292999,-0.123993c1.328003,-0.23999 2.563995,-0.78299 3.707001,-1.627991c0.656006,-0.483002 1.455017,-1.187012 2.399963,-2.109009l0.506042,0.291992l-4.532959,7.852036l-20.768036,-11.991013l0.264008,-0.521027l0.519989,0.300018c2.312988,1.334991 4.140991,0.837006 5.485992,-1.493011l6.40802,-11.10199c0.68399,-1.18399 0.905975,-2.220001 0.667999,-3.110016s-0.949005,-1.676971 -2.132996,-2.359985l-0.52002,-0.299988l0.294006,-0.507019l0,0z"/>
   <path transform="rotate(-30.376 243.748 -19.9008)" id="svg_29" d="m240.337143,-31.604254c2.054993,8.116999 4.106995,16.233 6.161987,24.348999c2.990021,-3.565001 -0.622986,-8.059 -0.923981,-12.084c-1.278992,-3.911001 -1.541016,-8.587 -3.438019,-12.032999c-0.621979,-0.025002 -2.908997,-2.468002 -1.799988,-0.232l0,0zm15.5,8.395c-0.106995,1.431999 0.419998,1.074999 1.433975,0.573c-0.195953,0.115 -1.863968,-1.476 -1.433975,-0.573l0,0zm-25.613007,6.876999c-2.005981,0.267 1.016998,1.493999 0,0l0,0z" fill="#FFF6F6"/>
   <path transform="rotate(-30.376 245.445 513.584)" id="svg_30" d="m257.01886,511.019135c-0.871002,-0.383026 -0.033997,1.733978 0,0l0,0zm-14.57399,-8.266022c-3.393005,1.278992 -2.888992,5.735992 -0.496002,7.708008c2.802994,3.951965 8.057007,6.542969 9.167999,11.47998c0.428009,0.987 -1.418991,3.452026 0.174011,2.05603c3.26799,-2.510986 0.855988,-7.096008 -1.757004,-9.072021c-2.585999,-3.316986 -7.692001,-5.626984 -7.796005,-10.283997c-0.041992,-0.627991 0.723999,-1.765991 0.707001,-1.888l0,0zm-8.573013,13.781006c0.963013,-0.138 2.396011,0.981995 1.49501,-0.710999c-0.276993,-2.760986 -0.477997,-0.582031 -1.49501,0.710999l0,0z" fill="#FFF6F6"/>
   <path transform="rotate(-30.376 -22.7126 242.398)" id="svg_31" d="m-33.430016,229.666214c-0.18,6.589005 -2.229,13.097992 -3.061001,19.66301c4.037003,-2.213013 2.666,-7.653015 4.008003,-11.473007c0.660999,-2.227997 0.266998,-5.070999 2.046999,-6.822006c-0.707001,-0.155991 -3.052,-2.256989 -2.994001,-1.367996l0,0zm11.300001,6.205002c0.346001,5.647003 -1.886999,11.807007 -2.536001,17.757996c-0.561998,5.151001 3.552002,-2.687988 2.817001,-5.144989c1.23,-3.444 0.125,-8.10701 2.878,-10.832001c-1.017,-0.561996 -2.245001,-1.346008 -3.159,-1.781006l0,0zm13.145,7.759995c0.299,0.386002 0.223,-0.632004 0,0l0,0z" fill="#FFF6F6"/>
   <path transform="rotate(-30.376 509.28 243.286)" id="svg_32" d="m506.73938,230.494919c-0.417999,4.705017 -4.442993,8.243011 -6.22699,12.477997c-0.96701,1.645996 -1.822021,3.634003 -3.688019,4.39801c3.736023,3.987 4.639008,-2.608002 6.667999,-4.994995c2,-3.464996 4.002014,-6.931 6.002014,-10.395996c-0.828979,-0.413025 -2.143005,-1.373016 -2.755005,-1.485016l0,0zm13.38501,7.85498c0.562988,0.752991 0.117004,4.121002 1.060974,1.738007c1.757019,-1.011993 -1.265991,-2.216003 -1.060974,-1.738007l0,0zm-8.661987,4.694c-1.117004,0.506989 -2.746002,0.205017 -1.703003,1.737c-0.022003,3.165009 1.61499,-1.909973 1.703003,-1.737l0,0zm2.306946,10.771027c-1.200989,0.64801 -2.530975,0.95401 -3.868958,1.104004c2.612976,2.334976 3.286011,0.709991 3.868958,-1.104004l0,0z" fill="#FFF6F6"/>
   <path transform="rotate(-30.376 241.344 253.577)" id="svg_33" d="m232.527313,241.290619c-2.858994,11.584 3.744995,20.130005 19.798996,24.445984c0.158005,0.197998 -11.731003,1.009003 -17.576996,-4.848999c-6.972992,-6.986984 -3.972992,-20.269974 -2.222,-19.596985l0,0z" fill="#888888" clip-rule="evenodd" fill-rule="evenodd"/>
   <path transform="rotate(-30.376 252.08 237.726)" id="svg_34" d="m253.316925,253.276794c7.460999,-10.233002 3.22699,-26.194992 -8.464996,-31.199005c-0.057007,-0.246994 7.237991,2.292007 11.85498,9.161011c6.651001,9.897003 -1.300995,23.540985 -3.389984,22.037994l0,0z" fill="#888888" clip-rule="evenodd" fill-rule="evenodd"/>
  </g>
 </g>
</svg>