<?xml version="1.0"?><svg width="793.7007874015749" height="1122.5196850393702" xmlns="http://www.w3.org/2000/svg">

 <metadata id="metadata7">image/svg+xml</metadata>
 <g>
  <title>Layer 1</title>
  <g id="layer1">
   <path fill="#000000" id="path2452" d="m373.74881,91.496201c-0.953033,-1.132057 -74.866394,153.229767 -164.185867,343.026321c-160.797581,341.681702 -162.268951,345.153076 -156.496704,350.263123c3.206333,2.838562 6.957413,4.797119 8.322372,4.342163c1.36496,-0.455017 71.17009,-73.878723 155.139816,-163.100342c83.96962,-89.221619 153.66478,-162.824951 154.868393,-163.552643c1.203613,-0.727692 71.421631,72.332245 156.044403,162.286163c84.622803,89.953979 155.209595,163.815674 156.949036,164.185852c1.73938,0.370178 5.567017,-1.189941 8.503296,-3.4375c5.037292,-3.855774 -3.754333,-23.462585 -156.044434,-348.001617c-88.770569,-189.175262 -162.147339,-344.879478 -163.100311,-346.01152zm-2.713837,42.697372c1.39035,-1.536987 2.442444,63.908173 2.442444,148.355255l0,151.069092l-142.294403,151.340454c-124.612946,132.457886 -143.806473,152.856628 -145.098671,153.511536c0.138969,-0.348877 1.004204,-1.568481 1.356895,-2.261536c0.810242,-1.592102 64.413269,-137.065796 141.299332,-301.052643c76.886047,-163.986816 140.926208,-299.449661 142.294403,-300.962158zm-99.777954,641.998322l0,244.786194l32.113495,0l0,-204.802612l108.552612,204.802612l44.597046,0l0,-244.786194l-32.113495,0l0,204.802673l-108.552612,-204.802673l-44.597046,0z"/>
  </g>
 </g>
</svg>