<?xml version="1.0"?><svg width="312.281" height="300.25" xmlns="http://www.w3.org/2000/svg">
 <title>Compass rose - blue and grey</title>
 <g>
  <title>Layer 1</title>
  <path d="m251.975006,156.126999c-0.563004,-12.399002 -2.423004,-24.912994 -7.197006,-36.455002c-4.509995,-10.900993 -11.373993,-21.289993 -19.617996,-29.722c-8.449005,-8.642998 -17.834,-15.792 -28.902008,-20.723c-11.151993,-4.972 -23.042999,-8.228996 -35.263992,-8.928997c-22.998001,-1.321999 -46.442001,6.374996 -64.5,20.606998c-17.188004,13.549004 -29.502007,33.063004 -34.334003,54.404007c-5.254002,23.207993 -1.352001,49.006989 11.053997,69.398987c3.116005,5.121002 6.339005,10.190002 10.442001,14.586014c4.047005,4.334991 8.360001,8.541992 13.020004,12.215988c9.293999,7.327011 19.906998,12.869003 31.226997,16.325012c22.447998,6.853989 46.990997,5.199997 68.300003,-4.646011c19.686005,-9.100998 36.862991,-25.544998 46.145996,-45.223999c2.955002,-6.264999 5.042999,-12.938004 6.740997,-19.639999c1.865005,-7.35199 2.542007,-14.636993 2.88501,-22.197998" fill="#848484" id="svg_1"/>
  <path d="m251.735001,155.886993c0,23.233002 -8.585007,46.131012 -23.949997,63.581009c-7.751999,8.806 -17.630997,16.914993 -28.209,22.026993c-11.042999,5.340012 -22.751999,8.889008 -34.971008,10.093002c-23.865997,2.354996 -48.577995,-4.977005 -67.473999,-19.73999c-17.131996,-13.390015 -30.185997,-33.365005 -34.716995,-54.689011c-2.506001,-11.792999 -3.356003,-24.914001 -1.170002,-36.821991c2.149002,-11.710007 6.143002,-23.656006 12.466,-33.774002c6.226997,-9.963005 13.919998,-19.254005 23.395004,-26.285004c4.764,-3.533997 9.773994,-6.807999 14.949997,-9.707001c5.317001,-2.978996 11.150002,-4.839996 16.973,-6.57c23.093994,-6.860001 49.119995,-4.695 70.477997,6.580002c5.162003,2.726997 10.322006,5.723999 14.955002,9.294998c4.652008,3.584 8.968994,7.976997 12.910004,12.32c7.903992,8.709 13.819992,18.538002 17.947998,29.526001c3.522003,9.386002 6.272003,19.845993 6.412994,29.942001c0.018005,1.294998 0.020004,2.591995 -0.003998,3.888c-0.013992,0.707001 -5.257996,0.337997 -6.117004,0.337997c-5.966995,0 -11.93399,0 -17.899994,0c-23.931,0 -47.858994,0 -71.791992,0c31.940994,-0.003006 63.875,-0.003006 95.815994,-0.003006" fill="#848484" id="svg_2"/>
  <path d="m251.735001,155.886993c0,23.233002 -8.585007,46.131012 -23.949997,63.581009c-7.751999,8.806 -17.630997,16.914993 -28.209,22.026993c-11.042999,5.340012 -22.751999,8.889008 -34.971008,10.093002c-23.865997,2.354996 -48.577995,-4.977005 -67.473999,-19.73999c-17.131996,-13.390015 -30.185997,-33.365005 -34.716995,-54.689011c-2.506001,-11.792999 -3.356003,-24.914001 -1.170002,-36.821991c2.149002,-11.710007 6.143002,-23.656006 12.466,-33.774002c6.226997,-9.963005 13.919998,-19.254005 23.395004,-26.285004c4.764,-3.533997 9.773994,-6.807999 14.949997,-9.707001c5.317001,-2.978996 11.150002,-4.839996 16.973,-6.57c23.093994,-6.860001 49.119995,-4.695 70.477997,6.580002c5.162003,2.726997 10.322006,5.723999 14.955002,9.294998c4.652008,3.584 8.968994,7.976997 12.910004,12.32c7.903992,8.709 13.819992,18.538002 17.947998,29.526001c4.132004,10.994003 6.416,22.395004 6.416,34.164993" stroke-miterlimit="10" stroke-linecap="square" stroke-width="0.2402" stroke="#010101" fill="#003f7f" id="svg_3"/>
  <path d="m227.955002,156.126999c-0.639008,-12.177002 -3.070007,-23.744003 -9.031006,-34.479996c-5.496002,-9.899002 -13.199997,-18.513 -22.560989,-24.901001c-19.507004,-13.312004 -45.41301,-16.557999 -67.324005,-7.363998c-10.779999,4.522995 -21.159004,11.628998 -28.556,20.747993c-7.316002,9.021004 -12.456001,19.986 -14.893005,31.306999c-2.598999,12.06601 -1.854996,24.141006 1.742004,35.928009c1.743996,5.718994 4.016998,11.263992 7.242996,16.310989c1.520004,2.381012 3.095001,4.751999 4.882004,6.940002c1.807999,2.214005 3.603996,4.764999 5.765999,6.638c4.499001,3.901001 9.014,7.753006 14.153999,10.798996c5.167,3.061005 10.716003,5.486008 16.479004,7.180008c11.707001,3.438004 24.626999,3.867004 36.475998,0.858994c6.041,-1.53299 11.701004,-3.39299 17.177994,-6.414993c5.098007,-2.813004 9.568008,-5.847 13.930008,-9.714005c8.729004,-7.737991 15.649994,-17.589005 19.751999,-28.528992c3.026001,-8.07901 4.309006,-16.728012 4.763,-25.307007" stroke-miterlimit="10" stroke-linecap="square" stroke-width="0.2402" stroke="#FFFFFF" fill="#FFFFFF" id="svg_4"/>
  <path d="m227.714005,156.126999c-0.771011,11.949997 -2.854004,23.488007 -8.541,34.152008c-5.238007,9.829987 -13.354004,18.405991 -22.389008,24.882996c-4.718994,3.380997 -10.011993,5.847 -15.366989,8.042999c-5.562012,2.278992 -10.985001,3.274994 -16.910004,4.091995c-5.971008,0.824005 -12.074005,0.830002 -18.05101,0.040009c-5.788986,-0.764999 -11.968994,-2.088013 -17.33699,-4.42601c-10.619003,-4.623001 -20.136002,-11.141998 -27.600006,-20.016998c-7.497993,-8.914001 -13.162994,-19.556992 -15.628998,-30.994003c-4.899002,-22.720993 1.246002,-47.456993 17.118004,-64.613991c15.167,-16.396004 37.974998,-25.331001 60.247993,-22.712006c5.861008,0.689003 11.525009,1.573006 16.998001,3.848c5.229004,2.173004 10.408005,4.536003 15.203003,7.566002c9.653,6.098 17.182007,15.080002 23.009995,24.794998c6.499008,10.823997 8.449005,22.939003 9.247009,35.344002c-23.930008,0 -47.859009,0 -71.789001,0c23.929993,0 47.860001,0 71.789001,0" fill="#FFFFFF" id="svg_5"/>
  <path d="m227.714005,156.126999c-0.771011,11.949997 -2.854004,23.488007 -8.541,34.152008c-5.238007,9.829987 -13.354004,18.405991 -22.389008,24.882996c-4.718994,3.380997 -10.011993,5.847 -15.366989,8.042999c-5.562012,2.278992 -10.985001,3.274994 -16.910004,4.091995c-5.971008,0.824005 -12.074005,0.830002 -18.05101,0.040009c-5.788986,-0.764999 -11.968994,-2.088013 -17.33699,-4.42601c-10.619003,-4.623001 -20.136002,-11.141998 -27.600006,-20.016998c-7.497993,-8.914001 -13.162994,-19.556992 -15.628998,-30.994003c-4.899002,-22.720993 1.246002,-47.456993 17.118004,-64.613991c15.167,-16.396004 37.974998,-25.331001 60.247993,-22.712006c5.861008,0.689003 11.525009,1.573006 16.998001,3.848c5.229004,2.173004 10.408005,4.536003 15.203003,7.566002c9.653,6.098 17.182007,15.080002 23.009995,24.794998c6.499008,10.823997 8.449005,22.939003 9.247009,35.344002" stroke-miterlimit="10" stroke-linecap="square" stroke-width="0.2402" stroke="#010101" fill="none" id="svg_6"/>
  <path d="m156.139999,154.207001c-0.078003,-51.395004 -0.160995,-102.790001 -0.240005,-154.186001c4.710007,25.91 9.424011,51.82 14.133011,77.730999c2.35199,12.926003 4.700989,25.853004 7.052994,38.780998c0.561996,3.091003 1.125,6.181 1.686005,9.274002c0.28299,1.543999 0.561996,3.090996 0.843994,4.635002c0.344009,1.884995 0.020004,1.949005 -1.237991,3.209c-4.527008,4.528 -9.057007,9.056992 -13.585999,13.584991c-2.963013,2.963013 -5.92601,5.928009 -8.890015,8.891006c0.07901,-0.641006 0.158005,-1.278992 0.238007,-1.919998" fill="#000000" id="svg_7"/>
  <path d="m156.139999,154.207001c-0.078003,-51.395004 -0.160995,-102.790001 -0.240005,-154.186001c4.710007,25.91 9.424011,51.82 14.133011,77.730999c2.35199,12.926003 4.700989,25.853004 7.052994,38.780998c0.561996,3.091003 1.125,6.181 1.686005,9.274002c0.28299,1.543999 0.561996,3.090996 0.843994,4.635002c0.344009,1.884995 0.020004,1.949005 -1.237991,3.209c-4.527008,4.528 -9.057007,9.056992 -13.585999,13.584991c-2.963013,2.963013 -5.92601,5.928009 -8.890015,8.891006" stroke-miterlimit="10" stroke-linecap="square" stroke-width="0.2402" stroke="#010101" fill="#003f7f" id="svg_8"/>
  <path d="m156.139999,154.207001c52.039993,0.641006 104.077988,1.281006 156.116989,1.919998c-25.958984,4.664001 -51.917999,9.328003 -77.878983,13.992004c-12.951004,2.326004 -25.900009,4.653992 -38.854004,6.979996c-3.098007,0.556 -6.193008,1.111008 -9.291,1.667999c-1.548004,0.277008 -3.097,0.557999 -4.645004,0.835999c-1.890991,0.339996 -1.964996,0.01001 -3.235992,-1.248001c-4.56601,-4.520996 -9.13501,-9.044998 -13.701004,-13.563995c-1.955002,-1.936005 -3.908005,-3.871994 -5.863007,-5.809006c-0.845001,-0.832001 -1.880997,-1.636993 -2.562988,-2.608994c-0.445999,-0.632996 -0.173004,-1.466003 -0.085007,-2.166" fill="#010101" id="svg_9"/>
  <path d="m156.139999,154.207001c52.039993,0.641006 104.077988,1.281006 156.116989,1.919998c-25.958984,4.664001 -51.917999,9.328003 -77.878983,13.992004c-12.951004,2.326004 -25.900009,4.653992 -38.854004,6.979996c-3.098007,0.556 -6.193008,1.111008 -9.291,1.667999c-1.548004,0.277008 -3.097,0.557999 -4.645004,0.835999c-1.890991,0.339996 -1.964996,0.01001 -3.235992,-1.248001c-4.56601,-4.520996 -9.13501,-9.044998 -13.701004,-13.563995c-2.917007,-2.891006 -5.835007,-5.772995 -8.751007,-8.664001" stroke-miterlimit="10" stroke-linecap="square" stroke-width="0.2402" stroke="#010101" fill="#003f7f" id="svg_10"/>
  <path d="m156.139999,154.207001c-52.039001,0.641006 -104.079998,1.283005 -156.118999,1.919998c25.923,-4.722 51.846001,-9.444 77.768993,-14.164001c12.914993,-2.354004 25.830994,-4.705002 38.74601,-7.057999c3.049988,-0.554993 6.099983,-1.110992 9.148987,-1.666992c1.525002,-0.276001 3.049995,-0.555008 4.575005,-0.832001c1.651001,-0.302002 1.675003,-0.248001 2.763,0.845993c4.556,4.556 9.112,9.111008 13.667999,13.667007c3.069,3.069 6.139999,6.139999 9.209,9.207993c0.080994,-0.641006 0.160004,-1.278992 0.23999,-1.919998" fill="#010101" id="svg_11"/>
  <path d="m156.139999,154.207001c-52.039001,0.641006 -104.079998,1.283005 -156.118999,1.919998c25.923,-4.722 51.846001,-9.444 77.768993,-14.164001c12.914993,-2.354004 25.830994,-4.705002 38.74601,-7.057999c3.049988,-0.554993 6.099983,-1.110992 9.148987,-1.666992c1.525002,-0.276001 3.049995,-0.555008 4.575005,-0.832001c1.651001,-0.302002 1.675003,-0.248001 2.763,0.845993c4.556,4.556 9.112,9.111008 13.667999,13.667007c3.069,3.069 6.139999,6.139999 9.209,9.207993" stroke-miterlimit="10" stroke-linecap="square" stroke-width="0.2402" stroke="#010101" fill="#003f7f" id="svg_12"/>
  <path d="m156.139999,154.207001c-4.466003,4.729996 -8.932007,9.462006 -13.397995,14.192993c-2.143997,2.271011 -4.28801,4.539001 -6.431,6.812012c-1.029999,1.090988 -2.062012,2.182999 -3.09201,3.273987c-1.347992,1.428009 -1.332993,1.438004 -0.944992,3.375c2.570999,12.881012 5.143005,25.762009 7.714005,38.644012c5.149994,25.799988 10.298996,51.598999 15.449997,77.395996c0.153992,0.776001 0.30899,1.552002 0.462997,2.324005c0,-24.332001 0,-48.664001 0,-72.996002c0,-12.345001 0,-24.689011 0,-37.035004c0,-5.940002 0,-11.884995 0,-17.824005c-0.001007,-5.983994 -0.503998,-12.218002 0.238998,-18.162994" fill="#010101" id="svg_13"/>
  <path d="m156.139999,154.207001c-4.466003,4.729996 -8.932007,9.462006 -13.397995,14.192993c-2.143997,2.271011 -4.28801,4.539001 -6.431,6.812012c-1.029999,1.090988 -2.062012,2.182999 -3.09201,3.273987c-1.347992,1.428009 -1.332993,1.438004 -0.944992,3.375c2.570999,12.881012 5.143005,25.762009 7.714005,38.644012c5.149994,25.799988 10.298996,51.598999 15.449997,77.395996c0.153992,0.776001 0.30899,1.552002 0.462997,2.324005c0,-48.033005 0,-96.065002 0,-144.100006" stroke-miterlimit="10" stroke-linecap="square" stroke-width="0.2402" stroke="#010101" fill="#003f7f" id="svg_14"/>
  <path d="m179.677002,130.910004c8.087006,-7.604004 16.173004,-15.209007 24.261002,-22.812004c-6.061996,2.969002 -12.123001,5.939003 -18.184998,8.907997c-1.309006,0.641006 -2.616013,1.281006 -3.924011,1.922005c-1.284988,0.628998 -1.911987,0.670998 -1.911987,2.111c0,3.689995 0,7.380997 0,11.071991c-0.080002,-0.401993 -0.160004,-0.799988 -0.240005,-1.200989" fill="#FFFFFF" id="svg_15"/>
  <path d="m179.677002,130.910004c8.087006,-7.604004 16.173004,-15.209007 24.261002,-22.812004c-6.061996,2.969002 -12.123001,5.939003 -18.184998,8.907997c-1.309006,0.641006 -2.616013,1.281006 -3.924011,1.922005c-1.284988,0.628998 -1.911987,0.670998 -1.911987,2.111c0,3.689995 0,7.380997 0,11.071991" stroke-miterlimit="10" stroke-linecap="square" stroke-width="0.2402" stroke="#010101" fill="#bfbfbf" id="svg_16"/>
  <path d="m179.677002,130.910004c8.087006,-7.604004 16.173004,-15.209007 24.261002,-22.812004c-3.356003,6.709 -6.712006,13.418999 -10.067001,20.125999c-0.471008,0.940994 -1.123001,3.253006 -2.013,3.818008c-0.751007,0.477997 -2.686996,0.067993 -3.509003,0.067993c-1.811005,0 -3.621002,0 -5.434006,0c-0.866989,0 -1.733994,0 -2.603989,0c-0.675003,0 -0.542999,-0.746994 -0.634003,-1.199997" fill="#010101" id="svg_17"/>
  <path d="m179.677002,130.910004c8.087006,-7.604004 16.173004,-15.209007 24.261002,-22.812004c-3.029999,6.058998 -6.061996,12.119003 -9.09201,18.178001c-0.653992,1.307999 -1.309998,2.617004 -1.963989,3.925003c-0.649002,1.296997 -0.697006,1.909988 -2.154999,1.909988c-3.603012,0 -7.206009,0 -10.809998,0" stroke-miterlimit="10" stroke-linecap="square" stroke-width="0.2402" stroke="#010101" fill="#003f7f" id="svg_18"/>
  <path d="m131.641998,132.110001c-7.925995,-8.003998 -15.852997,-16.009003 -23.778999,-24.013c2.987,5.972 5.973,11.942001 8.959999,17.915001c0.667,1.334999 1.334999,2.670998 2.002998,4.006004c0.576004,1.151993 0.667,2.091995 2.030006,2.091995c3.594994,0 7.190994,0 10.785995,0" fill="#FFFFFF" id="svg_19"/>
  <path d="m131.641998,132.110001c-7.925995,-8.003998 -15.852997,-16.009003 -23.778999,-24.013c4.002998,8.003998 8.006004,16.008003 12.009003,24.013" stroke-miterlimit="10" stroke-linecap="square" stroke-width="0.2402" stroke="#010101" fill="#bfbfbf" id="svg_20"/>
  <path d="m131.641998,132.110001c-7.925995,-8.003998 -15.852997,-16.009003 -23.778999,-24.013c6.061005,2.969002 12.123001,5.939003 18.183998,8.907997c1.308006,0.641006 2.617004,1.281006 3.925003,1.922005c1.287003,0.630997 1.914993,0.666 1.886993,2.111c-0.072998,3.690994 -0.144989,7.381996 -0.216995,11.071999" fill="#010101" id="svg_21"/>
  <path d="m131.641998,132.110001c-7.925995,-8.003998 -15.852997,-16.009003 -23.778999,-24.013c8.006004,3.922997 16.012001,7.843002 24.019005,11.765999" stroke-miterlimit="10" stroke-linecap="square" stroke-width="0.2402" stroke="#010101" fill="#003f7f" id="svg_22"/>
  <path d="m131.641998,179.901993c-7.925995,8.008011 -15.852997,16.012009 -23.778999,24.018005c4.254997,-2.084 8.511002,-4.169998 12.767998,-6.253998c2.127007,-1.044006 4.255005,-2.085007 6.383003,-3.128006c1.157997,-0.567001 5.000008,-1.659988 4.93,-3.179001c-0.061996,-1.354996 0.656006,-11.335999 -0.302002,-11.457001" fill="#FFFFFF" id="svg_23"/>
  <path d="m131.641998,179.901993c-7.925995,8.008011 -15.852997,16.012009 -23.778999,24.018005c6.061005,-2.968002 12.123001,-5.938004 18.183998,-8.905991c1.308006,-0.642014 2.617004,-1.281006 3.925003,-1.923004c1.283005,-0.628998 1.910004,-0.671997 1.910004,-2.110001c0,-3.692001 0,-7.38501 0,-11.076004" stroke-miterlimit="10" stroke-linecap="square" stroke-width="0.2402" stroke="#010101" fill="#003f7f" id="svg_24"/>
  <path d="m131.641998,179.901993c-7.925995,8.008011 -15.852997,16.012009 -23.778999,24.018005c2.986,-5.972 5.973,-11.942993 8.959999,-17.917999c0.667,-1.335999 1.334999,-2.671005 2.002998,-4.005997c0.576004,-1.152008 0.667,-2.094009 2.030006,-2.094009c3.594994,0 7.190994,0 10.785995,0" fill="#010101" id="svg_25"/>
  <path d="m131.641998,179.901993c-7.925995,8.008011 -15.852997,16.012009 -23.778999,24.018005c4.002998,-8.005997 8.006004,-16.009995 12.009003,-24.018005" stroke-miterlimit="10" stroke-linecap="square" stroke-width="0.2402" stroke="#010101" fill="#bfbfbf" id="svg_26"/>
  <path d="m179.677002,179.901993c8.087006,8.008011 16.173004,16.012009 24.261002,24.018005c-3.029999,-6.061005 -6.061996,-12.119995 -9.09201,-18.181992c-0.653992,-1.309006 -1.309998,-2.616013 -1.963989,-3.92601c-0.641006,-1.278 -0.688004,-1.910004 -2.133011,-1.910004c-3.688995,0 -7.377991,0 -11.071991,0" fill="#FFFFFF" id="svg_27"/>
  <path d="m179.677002,179.901993c8.087006,8.008011 16.173004,16.012009 24.261002,24.018005c-4.005005,-8.005997 -8.009003,-16.009995 -12.011002,-24.018005" stroke-miterlimit="10" stroke-linecap="square" stroke-width="0.2402" stroke="#010101" fill="#bfbfbf" id="svg_28"/>
  <path d="m179.677002,179.901993c8.087006,8.008011 16.173004,16.012009 24.261002,24.018005c-6.061996,-2.968002 -12.123001,-5.938004 -18.184998,-8.905991c-1.309006,-0.642014 -2.616013,-1.281006 -3.924011,-1.923004c-1.280991,-0.626999 -1.905991,-0.67601 -1.936996,-2.110001c-0.069992,-3.694 -0.141998,-7.38501 -0.214996,-11.07901" fill="#010101" id="svg_29"/>
  <path d="m179.677002,179.901993c8.087006,8.008011 16.173004,16.012009 24.261002,24.018005c-8.009003,-3.923004 -16.013,-7.843002 -24.020996,-11.765991" stroke-miterlimit="10" stroke-linecap="square" stroke-width="0.2402" stroke="#010101" fill="#003f7f" id="svg_30"/>
  <path d="m155.899994,155.406998c0,48.272003 0,96.546997 0,144.819016c5.117004,-25.641022 10.238007,-51.28302 15.354004,-76.924011c2.561996,-12.828003 5.125,-25.656006 7.684998,-38.486008c0.294006,-1.478989 0.590012,-2.962997 0.886002,-4.442001c0.192001,-0.96199 -1.451004,-2.047989 -2.078003,-2.686996c-2.325989,-2.373001 -4.653992,-4.748001 -6.980988,-7.121002c-4.587006,-4.677994 -9.173004,-9.356995 -13.763,-14.036987c-0.369003,-0.373001 -0.736008,-0.749008 -1.103012,-1.122009" fill="#bfbfbf" id="svg_31"/>
  <path d="m155.899994,155.406998c52.121002,0.238998 104.240021,0.477997 156.356995,0.720001c-25.899994,-4.703003 -51.802979,-9.401001 -77.704987,-14.100998c-12.938004,-2.348999 -25.880997,-4.697006 -38.820007,-7.046005c-2.983994,-0.541992 -5.967987,-1.084 -8.94899,-1.623993c-1.492004,-0.270996 -2.98201,-0.542007 -4.478012,-0.811996c-1.598999,-0.291 -2.166992,-0.641006 -3.312988,0.463989c-4.559998,4.42601 -9.121002,8.848007 -13.682007,13.272003c-3.136993,3.042999 -6.270996,6.087006 -9.410004,9.126999" fill="#bfbfbf" id="svg_32"/>
  <path d="m156.380005,155.406998c-52.120003,0.238998 -104.239006,0.477997 -156.359005,0.720001c25.923,4.675995 51.846001,9.350006 77.768993,14.020996c12.914993,2.328003 25.830994,4.658005 38.74601,6.986008c3.049988,0.550995 6.099983,1.099991 9.148987,1.651001c1.525002,0.274002 3.049995,0.550003 4.575005,0.822998c1.637009,0.294998 1.65799,0.257004 2.735992,-0.820999c4.525009,-4.528 9.054016,-9.054001 13.582016,-13.580002c3.26799,-3.266006 6.53598,-6.531006 9.802002,-9.800003" fill="#bfbfbf" id="svg_33"/>
  <path d="m155.899994,155.406998c0,-51.795998 0,-103.590996 0,-155.385998c-4.709991,25.91 -9.422989,51.82 -14.133987,77.730999c-2.350006,12.926003 -4.702011,25.853004 -7.052002,38.780998c-0.562012,3.091003 -1.124008,6.181 -1.686005,9.274002c-0.281006,1.543999 -0.561996,3.090996 -0.843994,4.635002c-0.345001,1.901001 -0.005005,1.957001 1.28299,3.207001c4.606003,4.468002 9.214005,8.934998 13.820007,13.405991c2.871994,2.784012 5.740997,5.569 8.612991,8.352005" fill="#bfbfbf" id="svg_34"/>
 </g>
</svg>